<svg width="83" height="24" viewBox="0 0 83 24" fill="none" xmlns="http://www.w3.org/2000/svg">
<path d="M17.6814 0.63829V9.63724H14.302V0.769089H12.0166V22.5863H14.302V12.0701H17.6814V22.9787H19.9668V0.63829H17.6814ZM2.99661 19.3425V1.39692H0.63829V21.6446H5.40356C7.27562 21.6446 9.26926 21.3568 10.5092 20.7813V18.4792C9.24494 19.0024 7.44581 19.3425 5.67099 19.3425H2.99661Z" fill="#191A20"/>
<path d="M38.1748 11.5731H40.5818V0.63829H38.1748V11.5731ZM28.0365 11.2853C31.8779 11.2853 34.455 9.11405 34.455 6.07952C34.455 3.04499 31.8779 0.873728 28.0365 0.873728C24.1951 0.873728 21.5936 3.04499 21.5936 6.07952C21.5936 9.11405 24.1951 11.2853 28.0365 11.2853ZM28.0365 9.19253C25.6538 9.19253 23.9763 7.96302 23.9763 6.07952C23.9763 4.19602 25.6538 2.96651 28.0365 2.96651C30.4191 2.96651 32.0724 4.19602 32.0724 6.07952C32.0724 7.96302 30.4191 9.19253 28.0365 9.19253ZM23.2469 22.691H41.0923V20.6505H25.6295V18.7147H40.5818V12.8026H23.1983V14.843H38.1991V16.7789H23.2469V22.691Z" fill="#191A20"/>
<path d="M59.4462 22.9787H61.8532V0.63829H59.4462V22.9787ZM49.5267 15.1831C53.2465 15.1831 55.9452 12.3055 55.9452 8.14614C55.9452 3.98674 53.2465 1.10917 49.5267 1.10917C45.7826 1.10917 43.1082 3.98674 43.1082 8.14614C43.1082 12.3055 45.7826 15.1831 49.5267 15.1831ZM49.5267 12.8287C47.0468 12.8287 45.4665 10.8144 45.4665 8.14614C45.4665 5.47784 47.0468 3.43738 49.5267 3.43738C51.9823 3.43738 53.5869 5.47784 53.5869 8.14614C53.5869 10.8144 51.9823 12.8287 49.5267 12.8287ZM42.4031 21.6446H50.7423C53.7328 21.6446 56.3099 21.2522 57.6957 20.572V18.1653C56.2856 18.8716 53.7328 19.2117 50.8882 19.2117H42.4031V21.6446Z" fill="#191A20"/>
<path d="M80.5718 0.63829V12.2532H82.9787V0.63829H80.5718ZM71.0656 7.85838L77.3625 11.8085L78.5052 9.87268L71.9894 5.87024C72.2569 5.11161 72.4271 4.2745 72.4757 3.41122H77.8244V1.21381H64.3796V3.41122H70.0444C69.7284 6.75967 67.5402 9.21869 64.1122 9.71572V12.0178C67.1755 11.7039 69.6068 10.1604 71.0656 7.85838ZM80.6204 15.7063H67.7347V13.2211H65.3764V22.691H82.9787V13.2211H80.6204V15.7063ZM67.7347 20.572V17.7991H80.6204V20.572H67.7347Z" fill="#191A20"/>
</svg>
